<svg data-v-423bf9ae="" xmlns="http://www.w3.org/2000/svg" viewBox="0 0 201.5157668356592 60" class="font"><!----><!----><defs data-v-423bf9ae=""><linearGradient data-v-423bf9ae="" gradientTransform="rotate(25)" id="319ee62b-9f41-4450-b91b-8b414d11faef" x1="0%" y1="0%" x2="100%" y2="0%"><stop data-v-423bf9ae="" offset="0%" style="stop-color: rgb(81, 164, 251); stop-opacity: 1;"></stop><stop data-v-423bf9ae="" offset="100%" style="stop-color: rgb(81, 164, 251); stop-opacity: 1;"></stop></linearGradient></defs><g data-v-423bf9ae="" id="7f34f45f-6403-4c0e-95f0-727d49b262a1" fill="url(#319ee62b-9f41-4450-b91b-8b414d11faef)" transform="matrix(4.86988307477194,0,0,4.86988307477194,-3.311517354933173,-13.392178932459991)"><path d="M5.99 7.29L5.58 7.29L5.58 7.29Q5.52 6.93 5.36 6.63L5.36 6.63L5.36 6.63Q5.20 6.32 4.94 6.10L4.94 6.10L4.94 6.10Q4.69 5.87 4.36 5.75L4.36 5.75L4.36 5.75Q4.03 5.62 3.64 5.62L3.64 5.62L3.64 5.62Q3.25 5.62 2.97 5.70L2.97 5.70L2.97 5.70Q2.70 5.78 2.53 5.96L2.53 5.96L2.53 5.96Q2.36 6.14 2.28 6.43L2.28 6.43L2.28 6.43Q2.20 6.72 2.20 7.14L2.20 7.14L2.20 10.94L2.20 10.94Q2.20 11.38 2.28 11.67L2.28 11.67L2.28 11.67Q2.36 11.96 2.54 12.13L2.54 12.13L2.54 12.13Q2.73 12.31 3.02 12.39L3.02 12.39L3.02 12.39Q3.32 12.46 3.75 12.46L3.75 12.46L4.07 12.46L4.07 12.46Q4.49 12.46 4.78 12.38L4.78 12.38L4.78 12.38Q5.07 12.30 5.24 12.12L5.24 12.12L5.24 12.12Q5.42 11.94 5.50 11.66L5.50 11.66L5.50 11.66Q5.58 11.37 5.58 10.94L5.58 10.94L5.58 10.29L5.99 10.29L5.99 11.27L5.99 11.27Q5.99 11.50 5.94 11.77L5.94 11.77L5.94 11.77Q5.89 12.04 5.73 12.27L5.73 12.27L5.73 12.27Q5.57 12.50 5.27 12.65L5.27 12.65L5.27 12.65Q4.96 12.80 4.46 12.80L4.46 12.80L2.21 12.80L2.21 12.80Q1.91 12.80 1.64 12.68L1.64 12.68L1.64 12.68Q1.36 12.56 1.15 12.36L1.15 12.36L1.15 12.36Q0.94 12.15 0.81 11.87L0.81 11.87L0.81 11.87Q0.68 11.59 0.68 11.27L0.68 11.27L0.68 6.80L0.68 6.80Q0.68 6.49 0.81 6.21L0.81 6.21L0.81 6.21Q0.94 5.93 1.15 5.72L1.15 5.72L1.15 5.72Q1.37 5.51 1.64 5.39L1.64 5.39L1.64 5.39Q1.91 5.27 2.21 5.27L2.21 5.27L4.46 5.27L4.46 5.27Q4.96 5.27 5.27 5.42L5.27 5.42L5.27 5.42Q5.57 5.58 5.73 5.81L5.73 5.81L5.73 5.81Q5.89 6.04 5.94 6.31L5.94 6.31L5.94 6.31Q5.99 6.58 5.99 6.80L5.99 6.80L5.99 7.29ZM8.90 2.94L8.90 2.94L8.90 10.94L8.90 10.94Q8.90 11.22 8.90 11.55L8.90 11.55L8.90 11.55Q8.90 11.87 8.98 12.14L8.98 12.14L8.98 12.14Q9.06 12.41 9.25 12.58L9.25 12.58L9.25 12.58Q9.43 12.76 9.80 12.76L9.80 12.76L9.80 12.76Q9.82 12.76 9.82 12.78L9.82 12.78L9.82 12.78Q9.82 12.80 9.80 12.80L9.80 12.80L8.88 12.80L8.88 12.80Q8.35 12.80 8.04 12.68L8.04 12.68L8.04 12.68Q7.74 12.56 7.58 12.36L7.58 12.36L7.58 12.36Q7.43 12.15 7.39 11.87L7.39 11.87L7.39 11.87Q7.36 11.59 7.36 11.27L7.36 11.27L7.36 4.57L7.36 4.57Q7.36 4.12 7.44 3.80L7.44 3.80L7.44 3.80Q7.52 3.49 7.70 3.29L7.70 3.29L7.70 3.29Q7.88 3.10 8.18 3.02L8.18 3.02L8.18 3.02Q8.47 2.94 8.90 2.94ZM12.52 5.27L14.81 5.27L14.81 5.27Q15.13 5.27 15.44 5.37L15.44 5.37L15.44 5.37Q15.74 5.48 15.97 5.67L15.97 5.67L15.97 5.67Q16.19 5.87 16.33 6.15L16.33 6.15L16.33 6.15Q16.47 6.44 16.47 6.81L16.47 6.81L16.47 11.27L16.47 11.27Q16.47 11.64 16.33 11.93L16.33 11.93L16.33 11.93Q16.19 12.21 15.97 12.40L15.97 12.40L15.97 12.40Q15.74 12.60 15.44 12.70L15.44 12.70L15.44 12.70Q15.13 12.80 14.81 12.80L14.81 12.80L12.52 12.80L12.52 12.80Q12.19 12.80 11.89 12.70L11.89 12.70L11.89 12.70Q11.59 12.60 11.36 12.40L11.36 12.40L11.36 12.40Q11.13 12.21 10.99 11.93L10.99 11.93L10.99 11.93Q10.85 11.64 10.85 11.27L10.85 11.27L10.85 6.81L10.85 6.81Q10.85 6.44 10.99 6.15L10.99 6.15L10.99 6.15Q11.13 5.87 11.36 5.67L11.36 5.67L11.36 5.67Q11.59 5.48 11.89 5.37L11.89 5.37L11.89 5.37Q12.19 5.27 12.52 5.27L12.52 5.27ZM12.37 7.13L12.37 10.94L12.37 10.94Q12.37 11.33 12.43 11.62L12.43 11.62L12.43 11.62Q12.50 11.91 12.66 12.09L12.66 12.09L12.66 12.09Q12.81 12.28 13.06 12.37L13.06 12.37L13.06 12.37Q13.30 12.46 13.66 12.46L13.66 12.46L13.66 12.46Q14.01 12.46 14.26 12.37L14.26 12.37L14.26 12.37Q14.51 12.28 14.67 12.09L14.67 12.09L14.67 12.09Q14.82 11.91 14.89 11.62L14.89 11.62L14.89 11.62Q14.96 11.33 14.96 10.94L14.96 10.94L14.96 7.13L14.96 7.13Q14.96 6.74 14.89 6.45L14.89 6.45L14.89 6.45Q14.82 6.17 14.67 5.98L14.67 5.98L14.67 5.98Q14.51 5.80 14.26 5.71L14.26 5.71L14.26 5.71Q14.01 5.62 13.66 5.62L13.66 5.62L13.66 5.62Q13.30 5.62 13.06 5.71L13.06 5.71L13.06 5.71Q12.81 5.80 12.66 5.98L12.66 5.98L12.66 5.98Q12.50 6.17 12.43 6.45L12.43 6.45L12.43 6.45Q12.37 6.74 12.37 7.13L12.37 7.13ZM19.87 5.61L19.87 10.96L19.87 10.96Q19.87 11.12 19.87 11.32L19.87 11.32L19.87 11.32Q19.87 11.52 19.88 11.72L19.88 11.72L19.88 11.72Q19.89 11.92 19.93 12.11L19.93 12.11L19.93 12.11Q19.97 12.30 20.07 12.44L20.07 12.44L20.07 12.44Q20.16 12.59 20.31 12.68L20.31 12.68L20.31 12.68Q20.46 12.77 20.69 12.77L20.69 12.77L20.69 12.77Q20.71 12.77 20.71 12.79L20.71 12.79L20.71 12.79Q20.71 12.80 20.69 12.80L20.69 12.80L19.87 12.80L19.87 12.80Q19.34 12.80 19.03 12.67L19.03 12.67L19.03 12.67Q18.72 12.54 18.57 12.30L18.57 12.30L18.57 12.30Q18.41 12.07 18.37 11.72L18.37 11.72L18.37 11.72Q18.33 11.38 18.33 10.96L18.33 10.96L18.33 5.61L17.51 5.61L17.51 5.27L18.33 5.27L18.33 4.59L18.33 4.59Q18.33 4.13 18.41 3.81L18.41 3.81L18.41 3.81Q18.48 3.50 18.67 3.31L18.67 3.31L18.67 3.31Q18.85 3.12 19.15 3.04L19.15 3.04L19.15 3.04Q19.44 2.95 19.87 2.95L19.87 2.95L19.87 5.27L21.36 5.27L21.36 5.61L19.87 5.61ZM23.58 2.96L23.58 2.96L23.58 5.27L26.13 5.27L26.13 5.27Q26.44 5.27 26.72 5.39L26.72 5.39L26.72 5.39Q27.00 5.51 27.21 5.71L27.21 5.71L27.21 5.71Q27.43 5.92 27.55 6.20L27.55 6.20L27.55 6.20Q27.67 6.48 27.67 6.79L27.67 6.79L27.67 11.21L27.67 11.21Q27.67 11.66 27.60 11.97L27.60 11.97L27.60 11.97Q27.53 12.27 27.35 12.46L27.35 12.46L27.35 12.46Q27.18 12.64 26.88 12.72L26.88 12.72L26.88 12.72Q26.58 12.80 26.13 12.80L26.13 12.80L26.13 7.13L26.13 7.13Q26.13 6.35 25.84 5.98L25.84 5.98L25.84 5.98Q25.55 5.62 24.84 5.62L24.84 5.62L23.58 5.62L23.58 11.21L23.58 11.21Q23.58 11.66 23.51 11.97L23.51 11.97L23.51 11.97Q23.44 12.27 23.27 12.46L23.27 12.46L23.27 12.46Q23.09 12.64 22.79 12.72L22.79 12.72L22.79 12.72Q22.49 12.80 22.04 12.80L22.04 12.80L22.04 4.60L22.04 4.60Q22.04 4.14 22.12 3.82L22.12 3.82L22.12 3.82Q22.20 3.51 22.38 3.32L22.38 3.32L22.38 3.32Q22.57 3.12 22.86 3.04L22.86 3.04L22.86 3.04Q23.15 2.96 23.58 2.96ZM30.19 2.75L30.19 2.75L30.19 2.75Q30.36 2.75 30.52 2.82L30.52 2.82L30.52 2.82Q30.67 2.89 30.79 3.01L30.79 3.01L30.79 3.01Q30.91 3.12 30.97 3.28L30.97 3.28L30.97 3.28Q31.04 3.44 31.04 3.62L31.04 3.62L31.04 3.62Q31.04 3.79 30.97 3.95L30.97 3.95L30.97 3.95Q30.91 4.12 30.79 4.23L30.79 4.23L30.79 4.23Q30.67 4.35 30.52 4.43L30.52 4.43L30.52 4.43Q30.36 4.50 30.19 4.50L30.19 4.50L30.19 4.50Q30.01 4.50 29.85 4.43L29.85 4.43L29.85 4.43Q29.70 4.35 29.58 4.23L29.58 4.23L29.58 4.23Q29.46 4.12 29.38 3.95L29.38 3.95L29.38 3.95Q29.31 3.79 29.31 3.62L29.31 3.62L29.31 3.62Q29.31 3.45 29.38 3.29L29.38 3.29L29.38 3.29Q29.46 3.13 29.58 3.01L29.58 3.01L29.58 3.01Q29.70 2.89 29.85 2.82L29.85 2.82L29.85 2.82Q30.01 2.75 30.19 2.75ZM30.95 5.15L30.95 11.22L30.95 11.22Q30.95 11.66 30.87 11.97L30.87 11.97L30.87 11.97Q30.80 12.27 30.63 12.46L30.63 12.46L30.63 12.46Q30.45 12.64 30.16 12.72L30.16 12.72L30.16 12.72Q29.86 12.80 29.41 12.80L29.41 12.80L29.41 6.78L29.41 6.78Q29.41 6.32 29.49 6.01L29.49 6.01L29.49 6.01Q29.57 5.70 29.75 5.51L29.75 5.51L29.75 5.51Q29.93 5.32 30.23 5.23L30.23 5.23L30.23 5.23Q30.52 5.15 30.95 5.15L30.95 5.15ZM34.36 4.22L34.36 4.22L34.36 5.27L35.85 5.27L35.85 5.61L34.36 5.61L34.36 11.21L34.36 11.21Q34.36 11.66 34.29 11.96L34.29 11.96L34.29 11.96Q34.21 12.26 34.04 12.45L34.04 12.45L34.04 12.45Q33.86 12.64 33.56 12.72L33.56 12.72L33.56 12.72Q33.26 12.80 32.81 12.80L32.81 12.80L32.81 5.61L32.00 5.61L32.00 5.27L32.81 5.27L32.81 4.60L32.81 4.60Q32.81 4.29 32.92 4.01L32.92 4.01L32.92 4.01Q33.03 3.73 33.23 3.53L33.23 3.53L33.23 3.53Q33.43 3.32 33.71 3.20L33.71 3.20L33.71 3.20Q33.99 3.08 34.33 3.08L34.33 3.08L35.63 3.08L35.63 3.08Q35.88 3.08 36.01 3.13L36.01 3.13L36.01 3.13Q36.14 3.18 36.20 3.29L36.20 3.29L36.20 3.29Q36.26 3.40 36.27 3.56L36.27 3.56L36.27 3.56Q36.29 3.73 36.29 3.97L36.29 3.97L36.29 4.59L35.88 4.59L35.88 4.59Q35.85 4.34 35.79 4.14L35.79 4.14L35.79 4.14Q35.73 3.93 35.62 3.78L35.62 3.78L35.62 3.78Q35.51 3.64 35.35 3.55L35.35 3.55L35.35 3.55Q35.18 3.47 34.96 3.47L34.96 3.47L34.96 3.47Q34.65 3.47 34.50 3.69L34.50 3.69L34.50 3.69Q34.36 3.90 34.36 4.22ZM35.54 5.27L35.54 5.27L36.18 5.27L36.18 5.27Q36.58 5.27 36.85 5.34L36.85 5.34L36.85 5.34Q37.13 5.41 37.31 5.55L37.31 5.55L37.31 5.55Q37.50 5.70 37.63 5.93L37.63 5.93L37.63 5.93Q37.76 6.16 37.86 6.49L37.86 6.49L39.39 11.28L41.23 5.60L41.23 5.60Q41.30 5.39 41.38 5.33L41.38 5.33L41.38 5.33Q41.46 5.27 41.63 5.27L41.63 5.27L42.03 5.27L42.03 5.27Q42.06 5.27 42.06 5.28L42.06 5.28L42.06 5.28Q42.06 5.29 42.03 5.29L42.03 5.29L42.03 5.29Q41.84 5.29 41.74 5.38L41.74 5.38L41.74 5.38Q41.64 5.48 41.58 5.67L41.58 5.67L38.97 13.90L38.97 13.90Q38.88 14.25 38.74 14.48L38.74 14.48L38.74 14.48Q38.60 14.71 38.42 14.84L38.42 14.84L38.42 14.84Q38.25 14.97 38.06 15.02L38.06 15.02L38.06 15.02Q37.87 15.07 37.68 15.07L37.68 15.07L37.54 15.07L37.54 15.07Q37.03 15.08 36.73 14.93L36.73 14.93L36.73 14.93Q36.42 14.78 36.26 14.55L36.26 14.55L36.26 14.55Q36.10 14.32 36.05 14.05L36.05 14.05L36.05 14.05Q36.00 13.78 35.99 13.56L35.99 13.56L35.99 13.56Q36.09 13.56 36.16 13.56L36.16 13.56L36.16 13.56Q36.22 13.57 36.27 13.61L36.27 13.61L36.27 13.61Q36.31 13.64 36.34 13.72L36.34 13.72L36.34 13.72Q36.37 13.79 36.39 13.92L36.39 13.92L36.39 13.92Q36.49 14.34 36.78 14.54L36.78 14.54L36.78 14.54Q37.07 14.75 37.66 14.72L37.66 14.72L37.66 14.72Q38.09 14.72 38.34 14.37L38.34 14.37L38.34 14.37Q38.59 14.02 38.75 13.42L38.75 13.42L38.92 12.88L38.92 12.88Q38.81 12.84 38.70 12.77L38.70 12.77L38.70 12.77Q38.58 12.69 38.47 12.58L38.47 12.58L38.47 12.58Q38.36 12.46 38.26 12.29L38.26 12.29L38.26 12.29Q38.16 12.11 38.08 11.87L38.08 11.87L36.17 5.90L36.17 5.90Q36.12 5.75 36.07 5.64L36.07 5.64L36.07 5.64Q36.03 5.52 35.96 5.44L35.96 5.44L35.96 5.44Q35.90 5.37 35.80 5.33L35.80 5.33L35.80 5.33Q35.70 5.29 35.54 5.29L35.54 5.29L35.54 5.29Q35.52 5.29 35.52 5.28L35.52 5.28L35.52 5.28Q35.52 5.27 35.54 5.27Z"></path></g><!----><!----></svg>